<svg width="1920" height="1080" viewBox="0 0 1920 1080" fill="none" xmlns="http://www.w3.org/2000/svg">
<rect width="1920" height="1080" fill="#454545"/>
<rect width="1920" height="1080" fill="#FCFCFC"/>
<rect x="-230.317" y="980.987" width="2326.46" height="979.49" transform="rotate(-41.8603 -230.317 980.987)" fill="#262626"/>
<path d="M959.591 743.846C1079.21 743.846 1176.18 646.875 1176.18 527.255C1176.18 407.635 1079.21 310.664 959.591 310.664C839.971 310.664 743 407.635 743 527.255C743 646.875 839.971 743.846 959.591 743.846Z" fill="#B3E1CE"/>
<path d="M961.647 536.212L751.664 302" stroke="#444444" stroke-width="30" stroke-linecap="round"/>
<path d="M961.647 536.212L1171.63 302" stroke="#444444" stroke-width="30" stroke-linecap="round"/>
<path d="M961.647 536.212V778.501" stroke="#444444" stroke-width="30" stroke-linecap="round"/>
<path d="M959.591 611.564C1001.37 611.564 1035.24 577.696 1035.24 535.918C1035.24 494.141 1001.37 460.273 959.591 460.273C917.813 460.273 883.946 494.141 883.946 535.918C883.946 577.696 917.813 611.564 959.591 611.564Z" fill="#009A5B" stroke="#444444" stroke-width="30"/>
</svg>
